<svg width="66" height="19" viewBox="0 0 66 19" fill="none" xmlns="http://www.w3.org/2000/svg">
<g clip-path="url(#clip0_7118_4840)">
<path fill-rule="evenodd" clip-rule="evenodd" d="M43.0705 6.19033C42.1511 5.17546 41.0044 4.65623 39.6571 4.65623C38.3599 4.65623 37.0728 5.56995 36.2805 6.47354L36.2838 4.78435L33.8633 4.78098L33.8366 18.635V18.8171L36.2704 18.8205L36.2805 14.4879C37.016 15.3207 38.1794 15.8096 39.4732 15.813C40.8974 15.813 42.0943 15.3005 43.0337 14.2924C43.9799 13.2775 44.4613 11.8446 44.4646 10.2026C44.468 8.5235 43.9999 7.17484 43.0705 6.19033ZM39.0754 6.93883C39.9012 6.93883 40.5999 7.25239 41.1515 7.8694C41.7199 8.46618 42.0107 9.2484 42.0074 10.1958C42.004 11.15 41.7232 12.0064 41.1415 12.6302C40.5865 13.2269 39.8911 13.5304 39.0654 13.5304C38.253 13.5304 37.5743 13.2303 36.9926 12.6234C36.4142 11.9963 36.1334 11.1433 36.1334 10.1857C36.1367 9.23829 36.4276 8.45607 36.9992 7.85929C37.5743 7.23891 38.253 6.93883 39.0687 6.93883H39.0754Z" fill="#262D3D"/>
<path fill-rule="evenodd" clip-rule="evenodd" d="M45.6983 6.84779L45.6882 12.6942C45.6849 13.9552 46.0292 14.8554 46.7046 15.3679C47.1258 15.6882 47.6607 15.8501 48.2959 15.8501C48.784 15.8501 49.5496 15.6511 49.5496 15.6511L49.3323 13.5203C49.3323 13.5203 48.774 13.7023 48.5032 13.5068C48.2458 13.3213 48.1187 12.9235 48.1187 12.3267L48.1288 6.84779L50.3821 6.85116L50.3854 4.81807L48.1321 4.8147L48.1388 1.89486L45.7083 1.89149L45.7016 4.81132L43.6622 4.80795L45.6983 6.84779Z" fill="#262D3D"/>
<path fill-rule="evenodd" clip-rule="evenodd" d="M25.7494 1.7364H13.764L13.7606 4.15724H18.5514L18.5314 15.459V15.6815L21.0655 15.6849L21.0555 4.16061L25.7494 4.15724V1.7364Z" fill="#262D3D"/>
<path fill-rule="evenodd" clip-rule="evenodd" d="M12.8413 7.91997L9.23393 4.27186C9.2005 4.23815 5.00478 0 5.00478 0L3.18273 1.8308L5.84727 4.52474L0 10.4015L7.86322 18.3451L9.66186 16.5379L6.97393 13.8203L12.8413 7.91997ZM5.34244 11.8108C5.28895 11.8277 5.23546 11.8277 5.18197 11.8108C5.12848 11.794 5.08501 11.7704 4.98806 11.6726L3.92827 10.6004C3.83466 10.506 3.80791 10.4588 3.79119 10.4049C3.77448 10.3509 3.77448 10.297 3.79119 10.243C3.80791 10.1891 3.83131 10.1453 3.92827 10.0475L7.26813 6.68595C7.36174 6.59155 7.40854 6.56458 7.46203 6.55109C7.51552 6.53423 7.56902 6.53423 7.62251 6.55109C7.676 6.56795 7.71946 6.59155 7.81641 6.68933L8.87621 7.76151C8.96982 7.85591 8.99656 7.90311 9.00994 7.95706C9.02665 8.01101 9.02665 8.06495 9.00994 8.1189C8.99322 8.17285 8.96982 8.21668 8.87287 8.31445L5.533 11.676C5.44274 11.7704 5.39593 11.794 5.34244 11.8108Z" fill="#204ECF"/>
<path fill-rule="evenodd" clip-rule="evenodd" d="M31.3726 6.25438C30.3797 5.21929 29.029 4.64949 27.645 4.68995C26.2442 4.68995 25.0105 5.18558 23.9775 6.16672C22.9344 7.15461 22.4028 8.52687 22.3995 10.243C22.3961 11.9592 22.9244 13.3314 23.9641 14.3227C24.9971 15.3072 26.2341 15.8096 27.6349 15.813C27.6884 15.8163 27.7419 15.8163 27.7954 15.8163C29.1059 15.8163 30.4031 15.2499 31.3593 14.2654C32.058 13.5405 32.8938 12.2593 32.8971 10.2633C32.9005 8.26725 32.0714 6.98266 31.3726 6.25438ZM30.607 10.2599C30.6037 11.2545 30.3128 12.0772 29.7378 12.7043C29.1661 13.3281 28.454 13.645 27.6216 13.645C26.8058 13.6416 26.1004 13.3247 25.5287 12.6942C24.9704 12.0806 24.6862 11.2545 24.6862 10.2464C24.6862 9.23828 24.9737 8.4156 25.5354 7.80197C26.1071 7.17821 26.8125 6.86128 27.6316 6.86128C28.4607 6.86128 29.1728 7.18159 29.7445 7.81208C30.3195 8.43921 30.6104 9.26188 30.607 10.2599Z" fill="#262D3D"/>
<path fill-rule="evenodd" clip-rule="evenodd" d="M53.1469 8.57408C53.1469 7.95033 53.4712 6.57807 55.2632 6.57807C55.8984 6.57807 56.2595 6.79386 56.5637 7.0501C56.8579 7.29623 57.005 7.90313 57.005 8.4055V8.64151L54.0463 9.1068C51.7027 9.46756 50.3587 10.7387 50.352 12.5998C50.3487 13.5641 50.6964 14.3902 51.3583 14.997C52.0102 15.5938 52.9029 15.9108 53.956 15.9141C55.2832 15.9141 56.2795 15.432 56.9916 14.4374C56.995 14.8588 56.995 15.2836 56.995 15.6781H59.4622L59.479 8.53025C59.4823 7.36366 59.1045 6.23417 58.359 5.61378C57.6235 5.00352 56.6606 4.68996 55.2665 4.68658H55.2465C54.1833 4.68658 53.0567 4.9698 52.2978 5.63401C51.4051 6.41286 50.9672 7.64688 50.9672 8.60105L53.1469 8.57408ZM54.2669 13.7698C53.391 13.7664 52.8226 13.264 52.826 12.4919C52.8293 11.6895 53.3843 11.2208 54.5711 11.0185L57.0016 10.6038V10.6274C56.995 12.4784 55.875 13.7698 54.2769 13.7698H54.2669Z" fill="#262D3D"/>
<path fill-rule="evenodd" clip-rule="evenodd" d="M60.6424 1.9016L60.619 15.6039V15.6646L62.8021 15.6714L62.8255 1.96567V1.90498L60.6424 1.9016Z" fill="#262D3D"/>
<path fill-rule="evenodd" clip-rule="evenodd" d="M64.0825 14.8318C64.0825 14.5958 64.1628 14.3935 64.3299 14.2249C64.4971 14.0563 64.6977 13.9721 64.9284 13.9721C65.1624 13.9721 65.3663 14.0563 65.5301 14.2249C65.6973 14.3935 65.7809 14.5958 65.7809 14.8318C65.7809 15.0712 65.6973 15.2701 65.5301 15.4353C65.363 15.6039 65.1624 15.6848 64.9284 15.6848C64.6943 15.6848 64.4937 15.6039 64.3299 15.4353C64.1661 15.2701 64.0825 15.0712 64.0825 14.8318ZM64.223 14.8318C64.223 15.0308 64.2898 15.2027 64.4269 15.3443C64.564 15.4826 64.7311 15.5534 64.9317 15.5534C65.129 15.5534 65.2961 15.4826 65.4332 15.3443C65.5703 15.2027 65.6405 15.0341 65.6405 14.8318C65.6405 14.6295 65.5703 14.4609 65.4332 14.3227C65.2961 14.1811 65.129 14.1103 64.9317 14.1103C64.7345 14.1103 64.5673 14.1811 64.4302 14.3227C64.2932 14.4609 64.223 14.6295 64.223 14.8318ZM65.1323 15.3005L64.905 14.8925H64.7512V15.3005H64.6108V14.3632H64.9885C65.1758 14.3632 65.2861 14.4744 65.2861 14.6295C65.2861 14.761 65.1891 14.8588 65.0588 14.8858L65.2894 15.3005H65.1323ZM64.7512 14.4879V14.7745H64.9685C65.0888 14.7745 65.149 14.7273 65.149 14.6329C65.149 14.5351 65.0888 14.4879 64.9685 14.4879H64.7512Z" fill="#262D3D"/>
</g>
<defs>
<clipPath id="clip0_7118_4840">
<rect width="65.7819" height="18.8204" fill="white"/>
</clipPath>
</defs>
</svg>
